<svg width="1024" height="606" viewBox="0 0 1024 606" fill="none" xmlns="http://www.w3.org/2000/svg">
<path fill-rule="evenodd" clip-rule="evenodd" d="M288.95 467.999C375.851 467.999 446.299 394.126 446.299 302.999C446.299 211.872 375.851 138 288.95 138C202.048 138 131.601 211.872 131.601 302.999C131.601 394.126 202.048 467.999 288.95 467.999ZM288.95 605.998C448.532 605.998 577.9 470.341 577.9 302.999C577.9 135.657 448.532 0 288.95 0C129.367 0 0 135.657 0 302.999C0 470.341 129.367 605.998 288.95 605.998Z" fill="#1173AE"/>
<path fill-rule="evenodd" clip-rule="evenodd" d="M735.051 467.999C821.953 467.999 892.4 394.126 892.4 302.999C892.4 211.872 821.953 138 735.051 138C648.15 138 577.702 211.872 577.702 302.999C577.702 394.126 648.15 467.999 735.051 467.999ZM735.051 605.998C894.634 605.998 1024 470.341 1024 302.999C1024 135.657 894.634 0 735.051 0C575.469 0 446.102 135.657 446.102 302.999C446.102 470.341 575.469 605.998 735.051 605.998Z" fill="black"/>
</svg>
