<svg width="268" height="61" viewBox="0 0 268 61" fill="none" xmlns="http://www.w3.org/2000/svg">
<path d="M138.376 19.8783L134.075 24.2814C132.325 22.5047 130.741 21.6293 129.319 21.6293C128.539 21.6293 127.923 21.7967 127.483 22.1313C127.042 22.4661 126.816 22.891 126.816 23.3931C126.816 23.7793 126.954 24.1269 127.231 24.4488C127.508 24.7706 128.2 25.2084 129.306 25.762L131.847 27.0623C134.527 28.4142 136.364 29.7918 137.371 31.208C138.376 32.6113 138.867 34.2593 138.867 36.1519C138.867 38.6624 137.961 40.7738 136.163 42.4476C134.351 44.1341 131.935 44.9709 128.904 44.9709C124.866 44.9709 121.646 43.3617 119.23 40.1301L123.507 35.3665C124.325 36.3449 125.281 37.1303 126.375 37.7225C127.47 38.3277 128.439 38.6238 129.294 38.6238C130.212 38.6238 130.942 38.4049 131.508 37.9414C132.074 37.4908 132.351 36.9758 132.351 36.3836C132.351 35.2892 131.345 34.2207 129.319 33.1778L126.979 31.9805C122.501 29.6759 120.261 26.7791 120.261 23.3158C120.261 21.0756 121.105 19.1574 122.79 17.5738C124.476 15.9902 126.64 15.1919 129.269 15.1919C131.068 15.1919 132.753 15.591 134.339 16.4021C135.936 17.2132 137.283 18.3719 138.376 19.8783Z" fill="white"/>
<path d="M164.781 15.9259H171.725V44.2501H164.781V41.2503C163.422 42.5764 162.064 43.5162 160.705 44.0956C159.346 44.6749 157.862 44.9711 156.277 44.9711C152.705 44.9711 149.61 43.5549 147.006 40.7096C144.401 37.8771 143.094 34.3495 143.094 30.1266C143.094 25.7492 144.351 22.1701 146.88 19.3763C149.409 16.5825 152.466 15.1792 156.076 15.1792C157.736 15.1792 159.296 15.501 160.755 16.1448C162.215 16.7885 163.561 17.7541 164.794 19.0416V15.9259H164.781ZM157.485 21.7581C155.334 21.7581 153.559 22.5306 152.138 24.0884C150.716 25.6463 150.013 27.629 150.013 30.0623C150.013 32.5085 150.729 34.5169 152.176 36.1005C153.622 37.6841 155.397 38.4694 157.51 38.4694C159.686 38.4694 161.498 37.6969 162.931 36.1391C164.366 34.5813 165.083 32.5471 165.083 30.0365C165.083 27.5774 164.366 25.5819 162.931 24.0498C161.498 22.5178 159.686 21.7581 157.485 21.7581Z" fill="white"/>
<path d="M177.992 4.98291H184.936V44.2506H177.992V4.98291Z" fill="white"/>
<path d="M211.68 15.9259H218.624V44.2501H211.68V41.2503C210.321 42.5764 208.963 43.5162 207.604 44.0956C206.246 44.6749 204.761 44.9711 203.176 44.9711C199.603 44.9711 196.509 43.5549 193.905 40.7096C191.301 37.8771 189.992 34.3495 189.992 30.1266C189.992 25.7492 191.251 22.1701 193.779 19.3763C196.307 16.5825 199.364 15.1792 202.975 15.1792C204.635 15.1792 206.195 15.501 207.654 16.1448C209.114 16.7885 210.459 17.7541 211.693 19.0416V15.9259H211.68ZM204.371 21.7581C202.22 21.7581 200.447 22.5306 199.025 24.0884C197.604 25.6463 196.899 27.629 196.899 30.0623C196.899 32.5085 197.616 34.5169 199.062 36.1005C200.509 37.6841 202.283 38.4694 204.396 38.4694C206.573 38.4694 208.384 37.6969 209.819 36.1391C211.252 34.5813 211.969 32.5471 211.969 30.0365C211.969 27.5774 211.252 25.5819 209.819 24.0498C208.384 22.5178 206.573 21.7581 204.371 21.7581Z" fill="white"/>
<path d="M225.595 15.9258H232.539V19.183C233.721 17.8441 235.042 16.8527 236.501 16.1833C237.948 15.5266 239.533 15.1919 241.244 15.1919C242.98 15.1919 244.54 15.6296 245.923 16.4923C247.32 17.3548 248.44 18.6295 249.282 20.2903C250.39 18.6295 251.735 17.3548 253.346 16.4923C254.956 15.6296 256.705 15.1919 258.604 15.1919C260.567 15.1919 262.303 15.6554 263.799 16.5953C265.297 17.5351 266.366 18.7582 267.02 20.2645C267.674 21.7709 268.001 24.2299 268.001 27.6288V44.2371H261.006V29.8819C261.006 26.6761 260.617 24.5003 259.837 23.3545C259.057 22.2215 257.887 21.655 256.327 21.655C255.144 21.655 254.076 22.0026 253.132 22.6978C252.188 23.3931 251.496 24.3458 251.031 25.5689C250.578 26.792 250.339 28.7618 250.339 31.4654V44.25H243.345V30.5256C243.345 27.9894 243.156 26.1612 242.791 25.0153C242.426 23.8823 241.873 23.0326 241.143 22.479C240.414 21.9253 239.533 21.6421 238.489 21.6421C237.332 21.6421 236.288 21.9897 235.344 22.6978C234.4 23.4059 233.696 24.3844 233.231 25.659C232.766 26.9336 232.526 28.9291 232.526 31.6457V44.25H225.582V15.9258H225.595Z" fill="white"/>
<path d="M59.2896 30.3396C59.2896 47.0957 46.0172 60.6792 29.6448 60.6792C13.2725 60.6792 0 47.0957 0 30.3396C0 13.5835 13.2725 0 29.6448 0C46.0172 0 59.2896 13.5835 59.2896 30.3396ZM12.7473 30.3396C12.7473 39.8906 20.3125 47.6332 29.6448 47.6332C38.977 47.6332 46.5423 39.8906 46.5423 30.3396C46.5423 20.7887 38.977 13.0461 29.6448 13.0461C20.3125 13.0461 12.7473 20.7887 12.7473 30.3396Z" fill="#3F8AE0"/>
<path d="M106.115 30.5C106.115 47.3447 92.7723 61 76.3132 61C59.8543 61 46.5117 47.3447 46.5117 30.5C46.5117 13.6554 59.8543 0 76.3132 0C92.7723 0 106.115 13.6554 106.115 30.5ZM59.3264 30.5C59.3264 40.1015 66.9317 47.8851 76.3132 47.8851C85.6945 47.8851 93.3002 40.1015 93.3002 30.5C93.3002 20.8985 85.6945 13.115 76.3132 13.115C66.9317 13.115 59.3264 20.8985 59.3264 30.5Z" fill="white"/>
</svg>
