<svg width="40" height="22" viewBox="0 0 40 22" fill="none" xmlns="http://www.w3.org/2000/svg">
<path d="M22 11C22 17.0751 17.0752 22 11 22C4.92488 22 0 17.0751 0 11C0 4.92488 4.92488 0 11 0C17.0752 0 22 4.92488 22 11ZM4.73 11C4.73 14.4628 7.53717 17.27 11 17.27C14.4628 17.27 17.27 14.4628 17.27 11C17.27 7.53718 14.4628 4.73001 11 4.73001C7.53717 4.73001 4.73 7.53718 4.73 11Z" fill="#3F8AE0"/>
<path d="M40 11C40 17.0751 35.0751 22 29 22C22.9249 22 18 17.0751 18 11C18 4.92488 22.9249 0 29 0C35.0751 0 40 4.92488 40 11ZM22.73 11C22.73 14.4628 25.5372 17.27 29 17.27C32.4627 17.27 35.27 14.4628 35.27 11C35.27 7.53717 32.4627 4.73001 29 4.73001C25.5372 4.73001 22.73 7.53717 22.73 11Z" fill="white"/>
</svg>
